# xmcd
#
# Track frame offsets:
#	150
#	10506
#	23788
#	34809
#	50165
#	64595
#	80370
#	94139
#	109516
#	120382
#	135349
#	145983
#
# Disc length: 2144 seconds
#
# Revision: 0
# Processed by: cddbd v1.5.2PL0 Copyright (c) Steve Scherf et al.
# Submitted via: EZCDAudioConverter 2.0.4.1
#
DISCID=91085e0c
DTITLE=Mandy Barnett - I Can't Stop Loving You - The Songs Of Don Gibson
DYEAR=1900
DGENRE=
TTITLE0=Yes I'm Hurting
TTITLE1=Too Soon To Know
TTITLE2=Look Who's Blue
TTITLE3=Sweet Dreams
TTITLE4=Just One Time
TTITLE5=Blue Blue Day
TTITLE6=Oh Lonesome Me
TTITLE7=Oh Such A Stranger
TTITLE8=Far Far Away
TTITLE9=I Can't Stop Loving You
TTITLE10=Lonesome Number One
TTITLE11=I'd Be) A Legend In My Time
EXTD=
EXTT0=
EXTT1=
EXTT2=
EXTT3=
EXTT4=
EXTT5=
EXTT6=
EXTT7=
EXTT8=
EXTT9=
EXTT10=
EXTT11=
PLAYORDER=
